<svg width="99" height="77" viewBox="0 0 99 77" fill="none" xmlns="http://www.w3.org/2000/svg">
<path d="M80.8648 75.0698H3.43274C6.7802 64.2518 13.8557 42.0582 14.7436 39.828C15.6316 37.5978 17.5449 36.409 18.8663 36.409C43.6904 36.3915 93.7296 36.367 95.2941 36.409C96.8586 36.4511 96.6507 38.0046 96.3512 38.776C92.8804 48.9102 85.738 69.7678 84.9346 72.1242C84.1312 74.4807 81.8867 75.0698 80.8648 75.0698Z" stroke="#CBCBCB" stroke-width="3" stroke-linejoin="round"/>
<path d="M3.84408 75.0698L2.36882 33.1877L2 6.68869C2 4.73946 3.38042 2 6.16234 2H31.5052C32.8224 2 35.5622 3.07471 35.5622 6.53064V17.7519H78.8717C80.4699 17.7343 83.6663 18.7107 83.6663 22.7567C83.6663 26.8026 83.6663 33.5038 83.6663 36.3486" stroke="#CBCBCB" stroke-width="3" stroke-linejoin="round"/>
</svg>
