<svg width="30" height="45" viewBox="0 0 30 45" fill="none" xmlns="http://www.w3.org/2000/svg">
<path d="M3.71403 41.0763V17.2796L2.80273 16.2741V13.1906H27.5379V16.2741L26.5615 17.2796V41.0763C26.5615 42.6314 25.9757 43.4224 24.2833 43.4224H6.18755C4.20873 43.4224 3.71403 41.8583 3.71403 41.0763Z" stroke="#FF5959" stroke-width="2" stroke-linejoin="round"/>
<rect x="8.98665" y="19.3742" width="1.37418" height="17.8643" stroke="#FF5959" stroke-width="1.37418" stroke-linejoin="round"/>
<rect x="14.4832" y="19.3742" width="1.37418" height="17.8643" stroke="#FF5959" stroke-width="1.37418" stroke-linejoin="round"/>
<rect x="19.9803" y="19.3742" width="1.37418" height="17.8643" stroke="#FF5959" stroke-width="1.37418" stroke-linejoin="round"/>
<path d="M28.6616 9.37446L1.42875 5.67106L1.699 3.6838C4.21688 4.0262 8.57002 4.76812 8.58003 4.69451C8.92435 2.16259 11.385 1.60265 12.5723 1.63917L18.9332 2.5042C21.1065 2.79975 21.8155 5.29499 21.8983 6.50567L28.9218 7.4608L28.6616 9.37446Z" stroke="#FF5959" stroke-width="2" stroke-linejoin="round"/>
</svg>
