<svg width="50" height="26" viewBox="0 0 50 26" fill="none" xmlns="http://www.w3.org/2000/svg">
<path d="M24.7 24.9999C13.9 24.9999 4.4 16.9999 1 12.9999C4.3 9.09993 13.66 1.29993 24.7 1.29993C35.74 1.29993 45.5 9.09993 49 12.9999C45.4 16.9999 35.5 24.9999 24.7 24.9999Z" stroke="white" stroke-width="2" stroke-linejoin="round"/>
<circle cx="25" cy="13" r="11" stroke="white" stroke-width="2"/>
<circle cx="25.3" cy="13.3" r="6.3" fill="white"/>
<path d="M23.0178 11.0441C21.3013 12.6779 21.4861 15.5284 20.7859 14.7928C20.0856 14.0571 20.3014 11.678 22.0179 10.0441C23.7344 8.41031 26.3017 8.14053 27.0019 8.87617C27.7021 9.61182 24.7343 9.41024 23.0178 11.0441Z" fill="black"/>
</svg>
